{
  "accessors": [
    {
      "bufferView": 2,
      "componentType": 5126,
      "count": 651,
      "max": [
        4.211999893188477,
        34.17601013183594,
        5.9720001220703125
      ],
      "min": [
        -4.211999893188477,
        -36.61199951171875,
        -2.7720000743865967
      ],
      "type": "VEC3"
    },
    {
      "bufferView": 2,
      "byteOffset": 7812,
      "componentType": 5126,
      "count": 651,
      "max": [
        0.9999999403953552,
        1.0,
        1.0
      ],
      "min": [
        -0.9999999403953552,
        -0.9999995231628418,
        -1.0
      ],
      "type": "VEC3"
    },
    {
      "bufferView": 1,
      "componentType": 5126,
      "count": 651,
      "max": [
        0.9867299795150757,
        0.9897900223731995
      ],
      "min": [
        0.00761001231148839,
        0.010479986667633057
      ],
      "type": "VEC2"
    },
    {
      "bufferView": 0,
      "componentType": 5125,
      "count": 2682,
      "type": "SCALAR"
    },
    {
      "bufferView": 2,
      "byteOffset": 15624,
      "componentType": 5126,
      "count": 1054,
      "max": [
        39.7960090637207,
        36.608001708984375,
        19.296009063720703
      ],
      "min": [
        -39.7960090637207,
        -20.059999465942383,
        -3.7960000038146973
      ],
      "type": "VEC3"
    },
    {
      "bufferView": 2,
      "byteOffset": 28272,
      "componentType": 5126,
      "count": 1054,
      "max": [
        1.0,
        0.3376545011997223,
        0.9999314546585083
      ],
      "min": [
        -1.0,
        -0.5164148807525635,
        -0.9999923706054688
      ],
      "type": "VEC3"
    },
    {
      "bufferView": 1,
      "byteOffset": 5208,
      "componentType": 5126,
      "count": 1054,
      "max": [
        0.9930151104927063,
        0.9965974688529968
      ],
      "min": [
        0.010515091009438038,
        0.01145749818533659
      ],
      "type": "VEC2"
    },
    {
      "bufferView": 0,
      "byteOffset": 10728,
      "componentType": 5125,
      "count": 4164,
      "type": "SCALAR"
    },
    {
      "bufferView": 2,
      "byteOffset": 40920,
      "componentType": 5126,
      "count": 280,
      "max": [
        6.811999797821045,
        34.24399948120117,
        6.375999927520752
      ],
      "min": [
        -6.811999797821045,
        -35.384010314941406,
        -3.072000026702881
      ],
      "type": "VEC3"
    },
    {
      "bufferView": 2,
      "byteOffset": 44280,
      "componentType": 5126,
      "count": 280,
      "max": [
        1.0,
        0.9981676936149597,
        0.9997605085372925
      ],
      "min": [
        -1.0,
        -0.8325127363204956,
        -0.9996808171272278
      ],
      "type": "VEC3"
    },
    {
      "bufferView": 1,
      "byteOffset": 13640,
      "componentType": 5126,
      "count": 280,
      "max": [
        0.9904199838638306,
        0.9946200251579285
      ],
      "min": [
        0.012040000408887863,
        0.12529003620147705
      ],
      "type": "VEC2"
    },
    {
      "bufferView": 0,
      "byteOffset": 27384,
      "componentType": 5125,
      "count": 654,
      "type": "SCALAR"
    },
    {
      "bufferView": 2,
      "byteOffset": 47640,
      "componentType": 5126,
      "count": 5233,
      "max": [
        39.768001556396484,
        36.2400016784668,
        4.507999897003174
      ],
      "min": [
        -39.768001556396484,
        -35.384002685546875,
        -3.7720000743865967
      ],
      "type": "VEC3"
    },
    {
      "bufferView": 2,
      "byteOffset": 110436,
      "componentType": 5126,
      "count": 5233,
      "max": [
        1.0,
        1.0,
        1.0
      ],
      "min": [
        -1.0,
        -1.0,
        -0.9999969005584717
      ],
      "type": "VEC3"
    },
    {
      "bufferView": 1,
      "byteOffset": 15880,
      "componentType": 5126,
      "count": 5233,
      "max": [
        1.0712900161743164,
        0.9946900010108948
      ],
      "min": [
        0.005499999970197678,
        0.0013800263404846191
      ],
      "type": "VEC2"
    },
    {
      "bufferView": 0,
      "byteOffset": 30000,
      "componentType": 5125,
      "count": 12294,
      "type": "SCALAR"
    },
    {
      "bufferView": 2,
      "byteOffset": 173232,
      "componentType": 5126,
      "count": 18,
      "max": [
        27.1720027923584,
        -4.252004146575928,
        1.0199999809265137
      ],
      "min": [
        23.62400245666504,
        -5.152003765106201,
        -2.620000123977661
      ],
      "type": "VEC3"
    },
    {
      "bufferView": 2,
      "byteOffset": 173448,
      "componentType": 5126,
      "count": 18,
      "max": [
        0.8520259261131287,
        -0.5234997272491455,
        0.8103014826774597
      ],
      "min": [
        -0.8519791960716248,
        -1.0,
        -0.8102718591690063
      ],
      "type": "VEC3"
    },
    {
      "bufferView": 1,
      "byteOffset": 57744,
      "componentType": 5126,
      "count": 18,
      "max": [
        0.2886900007724762,
        0.5544599890708923
      ],
      "min": [
        0.18440000712871552,
        0.44748997688293457
      ],
      "type": "VEC2"
    },
    {
      "bufferView": 0,
      "byteOffset": 79176,
      "componentType": 5125,
      "count": 45,
      "type": "SCALAR"
    },
    {
      "bufferView": 2,
      "byteOffset": 173664,
      "componentType": 5126,
      "count": 18,
      "max": [
        27.1720027923584,
        -4.252004146575928,
        1.0199999809265137
      ],
      "min": [
        23.62400245666504,
        -5.152003765106201,
        -2.620000123977661
      ],
      "type": "VEC3"
    },
    {
      "bufferView": 2,
      "byteOffset": 173880,
      "componentType": 5126,
      "count": 18,
      "max": [
        0.8520259261131287,
        -0.5234997272491455,
        0.8103014826774597
      ],
      "min": [
        -0.8519791960716248,
        -1.0,
        -0.8102718591690063
      ],
      "type": "VEC3"
    },
    {
      "bufferView": 1,
      "byteOffset": 57888,
      "componentType": 5126,
      "count": 18,
      "max": [
        0.3814600110054016,
        0.5544599890708923
      ],
      "min": [
        0.27717000246047974,
        0.44748997688293457
      ],
      "type": "VEC2"
    },
    {
      "bufferView": 0,
      "byteOffset": 79356,
      "componentType": 5125,
      "count": 45,
      "type": "SCALAR"
    },
    {
      "bufferView": 2,
      "byteOffset": 174096,
      "componentType": 5126,
      "count": 18,
      "max": [
        27.1720027923584,
        -4.252004146575928,
        1.0199999809265137
      ],
      "min": [
        23.62400245666504,
        -5.152003765106201,
        -2.620000123977661
      ],
      "type": "VEC3"
    },
    {
      "bufferView": 2,
      "byteOffset": 174312,
      "componentType": 5126,
      "count": 18,
      "max": [
        0.8520259261131287,
        -0.5234997272491455,
        0.8103014826774597
      ],
      "min": [
        -0.8519791960716248,
        -1.0,
        -0.8102718591690063
      ],
      "type": "VEC3"
    },
    {
      "bufferView": 1,
      "byteOffset": 58032,
      "componentType": 5126,
      "count": 18,
      "max": [
        0.47422999143600464,
        0.5544599890708923
      ],
      "min": [
        0.36994001269340515,
        0.44748997688293457
      ],
      "type": "VEC2"
    },
    {
      "bufferView": 0,
      "byteOffset": 79536,
      "componentType": 5125,
      "count": 45,
      "type": "SCALAR"
    },
    {
      "bufferView": 2,
      "byteOffset": 174528,
      "componentType": 5126,
      "count": 18,
      "max": [
        16.332002639770508,
        -12.299999237060547,
        -0.027997970581054688
      ],
      "min": [
        12.784003257751465,
        -13.199999809265137,
        -3.6639981269836426
      ],
      "type": "VEC3"
    },
    {
      "bufferView": 2,
      "byteOffset": 174744,
      "componentType": 5126,
      "count": 18,
      "max": [
        0.8519967198371887,
        -0.5235471725463867,
        0.8103033304214478
      ],
      "min": [
        -0.8519562482833862,
        -1.0,
        -0.8102914690971375
      ],
      "type": "VEC3"
    },
    {
      "bufferView": 1,
      "byteOffset": 58176,
      "componentType": 5126,
      "count": 18,
      "max": [
        0.2886900007724762,
        0.5544599890708923
      ],
      "min": [
        0.18440000712871552,
        0.44748997688293457
      ],
      "type": "VEC2"
    },
    {
      "bufferView": 0,
      "byteOffset": 79716,
      "componentType": 5125,
      "count": 45,
      "type": "SCALAR"
    },
    {
      "bufferView": 2,
      "byteOffset": 174960,
      "componentType": 5126,
      "count": 18,
      "max": [
        16.332002639770508,
        -12.299999237060547,
        -0.027997970581054688
      ],
      "min": [
        12.784003257751465,
        -13.199999809265137,
        -3.6639981269836426
      ],
      "type": "VEC3"
    },
    {
      "bufferView": 2,
      "byteOffset": 175176,
      "componentType": 5126,
      "count": 18,
      "max": [
        0.8519967198371887,
        -0.5235471725463867,
        0.8103033304214478
      ],
      "min": [
        -0.8519562482833862,
        -1.0,
        -0.8102914690971375
      ],
      "type": "VEC3"
    },
    {
      "bufferView": 1,
      "byteOffset": 58320,
      "componentType": 5126,
      "count": 18,
      "max": [
        0.3814600110054016,
        0.5544599890708923
      ],
      "min": [
        0.27717000246047974,
        0.44748997688293457
      ],
      "type": "VEC2"
    },
    {
      "bufferView": 0,
      "byteOffset": 79896,
      "componentType": 5125,
      "count": 45,
      "type": "SCALAR"
    },
    {
      "bufferView": 2,
      "byteOffset": 175392,
      "componentType": 5126,
      "count": 18,
      "max": [
        16.332002639770508,
        -12.299999237060547,
        -0.027997970581054688
      ],
      "min": [
        12.784003257751465,
        -13.199999809265137,
        -3.6639981269836426
      ],
      "type": "VEC3"
    },
    {
      "bufferView": 2,
      "byteOffset": 175608,
      "componentType": 5126,
      "count": 18,
      "max": [
        0.8519967198371887,
        -0.5235471725463867,
        0.8103033304214478
      ],
      "min": [
        -0.8519562482833862,
        -1.0,
        -0.8102914690971375
      ],
      "type": "VEC3"
    },
    {
      "bufferView": 1,
      "byteOffset": 58464,
      "componentType": 5126,
      "count": 18,
      "max": [
        0.47422999143600464,
        0.5544599890708923
      ],
      "min": [
        0.36994001269340515,
        0.44748997688293457
      ],
      "type": "VEC2"
    },
    {
      "bufferView": 0,
      "byteOffset": 80076,
      "componentType": 5125,
      "count": 45,
      "type": "SCALAR"
    },
    {
      "bufferView": 2,
      "byteOffset": 175824,
      "componentType": 5126,
      "count": 18,
      "max": [
        -12.967999458312988,
        -12.299999237060547,
        -0.028005003929138184
      ],
      "min": [
        -16.51599884033203,
        -13.199999809265137,
        -3.6640048027038574
      ],
      "type": "VEC3"
    },
    {
      "bufferView": 2,
      "byteOffset": 176040,
      "componentType": 5126,
      "count": 18,
      "max": [
        0.8519799709320068,
        -0.5235230922698975,
        0.8103033900260925
      ],
      "min": [
        -0.852011501789093,
        -1.0,
        -0.810291051864624
      ],
      "type": "VEC3"
    },
    {
      "bufferView": 1,
      "byteOffset": 58608,
      "componentType": 5126,
      "count": 18,
      "max": [
        0.2886900007724762,
        0.5544599890708923
      ],
      "min": [
        0.18440000712871552,
        0.44748997688293457
      ],
      "type": "VEC2"
    },
    {
      "bufferView": 0,
      "byteOffset": 80256,
      "componentType": 5125,
      "count": 45,
      "type": "SCALAR"
    },
    {
      "bufferView": 2,
      "byteOffset": 176256,
      "componentType": 5126,
      "count": 18,
      "max": [
        -12.967999458312988,
        -12.299999237060547,
        -0.028005003929138184
      ],
      "min": [
        -16.51599884033203,
        -13.199999809265137,
        -3.6640048027038574
      ],
      "type": "VEC3"
    },
    {
      "bufferView": 2,
      "byteOffset": 176472,
      "componentType": 5126,
      "count": 18,
      "max": [
        0.8519799709320068,
        -0.5235230922698975,
        0.8103033900260925
      ],
      "min": [
        -0.852011501789093,
        -1.0,
        -0.810291051864624
      ],
      "type": "VEC3"
    },
    {
      "bufferView": 1,
      "byteOffset": 58752,
      "componentType": 5126,
      "count": 18,
      "max": [
        0.3814600110054016,
        0.5544599890708923
      ],
      "min": [
        0.27717000246047974,
        0.44748997688293457
      ],
      "type": "VEC2"
    },
    {
      "bufferView": 0,
      "byteOffset": 80436,
      "componentType": 5125,
      "count": 45,
      "type": "SCALAR"
    },
    {
      "bufferView": 2,
      "byteOffset": 176688,
      "componentType": 5126,
      "count": 18,
      "max": [
        -12.967999458312988,
        -12.299999237060547,
        -0.028005003929138184
      ],
      "min": [
        -16.51599884033203,
        -13.199999809265137,
        -3.6640048027038574
      ],
      "type": "VEC3"
    },
    {
      "bufferView": 2,
      "byteOffset": 176904,
      "componentType": 5126,
      "count": 18,
      "max": [
        0.8519799709320068,
        -0.5235230922698975,
        0.8103033900260925
      ],
      "min": [
        -0.852011501789093,
        -1.0,
        -0.810291051864624
      ],
      "type": "VEC3"
    },
    {
      "bufferView": 1,
      "byteOffset": 58896,
      "componentType": 5126,
      "count": 18,
      "max": [
        0.47422999143600464,
        0.5544599890708923
      ],
      "min": [
        0.36994001269340515,
        0.44748997688293457
      ],
      "type": "VEC2"
    },
    {
      "bufferView": 0,
      "byteOffset": 80616,
      "componentType": 5125,
      "count": 45,
      "type": "SCALAR"
    },
    {
      "bufferView": 2,
      "byteOffset": 177120,
      "componentType": 5126,
      "count": 18,
      "max": [
        -23.80799674987793,
        -4.252004146575928,
        1.019995927810669
      ],
      "min": [
        -27.35599708557129,
        -5.152003765106201,
        -2.6200039386749268
      ],
      "type": "VEC3"
    },
    {
      "bufferView": 2,
      "byteOffset": 177336,
      "componentType": 5126,
      "count": 18,
      "max": [
        0.8519755005836487,
        -0.5234829783439636,
        0.8102912902832031
      ],
      "min": [
        -0.8520258665084839,
        -1.0,
        -0.8103359341621399
      ],
      "type": "VEC3"
    },
    {
      "bufferView": 1,
      "byteOffset": 59040,
      "componentType": 5126,
      "count": 18,
      "max": [
        0.2886900007724762,
        0.5544599890708923
      ],
      "min": [
        0.18440000712871552,
        0.44748997688293457
      ],
      "type": "VEC2"
    },
    {
      "bufferView": 0,
      "byteOffset": 80796,
      "componentType": 5125,
      "count": 45,
      "type": "SCALAR"
    },
    {
      "bufferView": 2,
      "byteOffset": 177552,
      "componentType": 5126,
      "count": 18,
      "max": [
        -23.80799674987793,
        -4.252004146575928,
        1.019995927810669
      ],
      "min": [
        -27.35599708557129,
        -5.152003765106201,
        -2.6200039386749268
      ],
      "type": "VEC3"
    },
    {
      "bufferView": 2,
      "byteOffset": 177768,
      "componentType": 5126,
      "count": 18,
      "max": [
        0.8519755005836487,
        -0.5234829783439636,
        0.8102912902832031
      ],
      "min": [
        -0.8520258665084839,
        -1.0,
        -0.8103359341621399
      ],
      "type": "VEC3"
    },
    {
      "bufferView": 1,
      "byteOffset": 59184,
      "componentType": 5126,
      "count": 18,
      "max": [
        0.3814600110054016,
        0.5544599890708923
      ],
      "min": [
        0.27717000246047974,
        0.44748997688293457
      ],
      "type": "VEC2"
    },
    {
      "bufferView": 0,
      "byteOffset": 80976,
      "componentType": 5125,
      "count": 45,
      "type": "SCALAR"
    },
    {
      "bufferView": 2,
      "byteOffset": 177984,
      "componentType": 5126,
      "count": 18,
      "max": [
        -23.80799674987793,
        -4.252004146575928,
        1.019995927810669
      ],
      "min": [
        -27.35599708557129,
        -5.152003765106201,
        -2.6200039386749268
      ],
      "type": "VEC3"
    },
    {
      "bufferView": 2,
      "byteOffset": 178200,
      "componentType": 5126,
      "count": 18,
      "max": [
        0.8519755005836487,
        -0.5234829783439636,
        0.8102912902832031
      ],
      "min": [
        -0.8520258665084839,
        -1.0,
        -0.8103359341621399
      ],
      "type": "VEC3"
    },
    {
      "bufferView": 1,
      "byteOffset": 59328,
      "componentType": 5126,
      "count": 18,
      "max": [
        0.47422999143600464,
        0.5544599890708923
      ],
      "min": [
        0.36994001269340515,
        0.44748997688293457
      ],
      "type": "VEC2"
    },
    {
      "bufferView": 0,
      "byteOffset": 81156,
      "componentType": 5125,
      "count": 45,
      "type": "SCALAR"
    }
  ],
  "asset": {
    "extras": {
      "author": "Nobilis 2 (https://sketchfab.com/nobilishornet2)",
      "license": "CC-BY-4.0 (http://creativecommons.org/licenses/by/4.0/)",
      "source": "https://sketchfab.com/3d-models/airbus-a380-800-cfd1092a207b4085a32fbb89c6b32f25",
      "title": "Airbus A380 - 800"
    },
    "generator": "Sketchfab-17.14.0",
    "version": "2.0"
  },
  "bufferViews": [
    {
      "buffer": 0,
      "byteLength": 81336,
      "name": "floatBufferViews",
      "target": 34963
    },
    {
      "buffer": 0,
      "byteLength": 59472,
      "byteOffset": 81336,
      "byteStride": 8,
      "name": "floatBufferViews",
      "target": 34962
    },
    {
      "buffer": 0,
      "byteLength": 178416,
      "byteOffset": 140808,
      "byteStride": 12,
      "name": "floatBufferViews",
      "target": 34962
    }
  ],
  "buffers": [
    {
      "byteLength": 319224,
      "uri": "scene.bin"
    }
  ],
  "images": [
    {
      "uri": "textures/material00_baseColor.png"
    },
    {
      "uri": "textures/material02_baseColor.png"
    },
    {
      "uri": "textures/material02_metallicRoughness.png"
    },
    {
      "uri": "textures/material03_baseColor.png"
    }
  ],
  "materials": [
    {
      "doubleSided": true,
      "name": "material00",
      "pbrMetallicRoughness": {
        "baseColorTexture": {
          "index": 0
        },
        "metallicFactor": 0.0,
        "roughnessFactor": 0.22107172250991775
      }
    },
    {
      "doubleSided": true,
      "name": "material02",
      "pbrMetallicRoughness": {
        "baseColorTexture": {
          "index": 1
        },
        "metallicRoughnessTexture": {
          "index": 2
        },
        "roughnessFactor": 0.23009877911855112
      }
    },
    {
      "doubleSided": true,
      "name": "material01",
      "pbrMetallicRoughness": {
        "baseColorTexture": {
          "index": 0
        },
        "metallicFactor": 0.0,
        "roughnessFactor": 0.872364148667177
      }
    },
    {
      "doubleSided": true,
      "name": "material03",
      "pbrMetallicRoughness": {
        "baseColorTexture": {
          "index": 3
        },
        "metallicFactor": 0.0,
        "roughnessFactor": 0.22455343029727926
      }
    }
  ],
  "meshes": [
    {
      "name": "Object_5_material00_0",
      "primitives": [
        {
          "attributes": {
            "NORMAL": 1,
            "POSITION": 0,
            "TEXCOORD_0": 2
          },
          "indices": 3,
          "material": 0,
          "mode": 4
        }
      ]
    },
    {
      "name": "Object_7_material02_0",
      "primitives": [
        {
          "attributes": {
            "NORMAL": 5,
            "POSITION": 4,
            "TEXCOORD_0": 6
          },
          "indices": 7,
          "material": 1,
          "mode": 4
        }
      ]
    },
    {
      "name": "Object_9_material01_0",
      "primitives": [
        {
          "attributes": {
            "NORMAL": 9,
            "POSITION": 8,
            "TEXCOORD_0": 10
          },
          "indices": 11,
          "material": 2,
          "mode": 4
        }
      ]
    },
    {
      "name": "Object_11_material03_0",
      "primitives": [
        {
          "attributes": {
            "NORMAL": 13,
            "POSITION": 12,
            "TEXCOORD_0": 14
          },
          "indices": 15,
          "material": 3,
          "mode": 4
        }
      ]
    },
    {
      "name": "Object_13_material01_0",
      "primitives": [
        {
          "attributes": {
            "NORMAL": 17,
            "POSITION": 16,
            "TEXCOORD_0": 18
          },
          "indices": 19,
          "material": 2,
          "mode": 4
        }
      ]
    },
    {
      "name": "Object_15_material01_0",
      "primitives": [
        {
          "attributes": {
            "NORMAL": 21,
            "POSITION": 20,
            "TEXCOORD_0": 22
          },
          "indices": 23,
          "material": 2,
          "mode": 4
        }
      ]
    },
    {
      "name": "Object_17_material01_0",
      "primitives": [
        {
          "attributes": {
            "NORMAL": 25,
            "POSITION": 24,
            "TEXCOORD_0": 26
          },
          "indices": 27,
          "material": 2,
          "mode": 4
        }
      ]
    },
    {
      "name": "Object_19_material01_0",
      "primitives": [
        {
          "attributes": {
            "NORMAL": 29,
            "POSITION": 28,
            "TEXCOORD_0": 30
          },
          "indices": 31,
          "material": 2,
          "mode": 4
        }
      ]
    },
    {
      "name": "Object_21_material01_0",
      "primitives": [
        {
          "attributes": {
            "NORMAL": 33,
            "POSITION": 32,
            "TEXCOORD_0": 34
          },
          "indices": 35,
          "material": 2,
          "mode": 4
        }
      ]
    },
    {
      "name": "Object_23_material01_0",
      "primitives": [
        {
          "attributes": {
            "NORMAL": 37,
            "POSITION": 36,
            "TEXCOORD_0": 38
          },
          "indices": 39,
          "material": 2,
          "mode": 4
        }
      ]
    },
    {
      "name": "Object_25_material01_0",
      "primitives": [
        {
          "attributes": {
            "NORMAL": 41,
            "POSITION": 40,
            "TEXCOORD_0": 42
          },
          "indices": 43,
          "material": 2,
          "mode": 4
        }
      ]
    },
    {
      "name": "Object_27_material01_0",
      "primitives": [
        {
          "attributes": {
            "NORMAL": 45,
            "POSITION": 44,
            "TEXCOORD_0": 46
          },
          "indices": 47,
          "material": 2,
          "mode": 4
        }
      ]
    },
    {
      "name": "Object_29_material01_0",
      "primitives": [
        {
          "attributes": {
            "NORMAL": 49,
            "POSITION": 48,
            "TEXCOORD_0": 50
          },
          "indices": 51,
          "material": 2,
          "mode": 4
        }
      ]
    },
    {
      "name": "Object_31_material01_0",
      "primitives": [
        {
          "attributes": {
            "NORMAL": 53,
            "POSITION": 52,
            "TEXCOORD_0": 54
          },
          "indices": 55,
          "material": 2,
          "mode": 4
        }
      ]
    },
    {
      "name": "Object_33_material01_0",
      "primitives": [
        {
          "attributes": {
            "NORMAL": 57,
            "POSITION": 56,
            "TEXCOORD_0": 58
          },
          "indices": 59,
          "material": 2,
          "mode": 4
        }
      ]
    },
    {
      "name": "Object_35_material01_0",
      "primitives": [
        {
          "attributes": {
            "NORMAL": 61,
            "POSITION": 60,
            "TEXCOORD_0": 62
          },
          "indices": 63,
          "material": 2,
          "mode": 4
        }
      ]
    }
  ],
  "nodes": [
    {
      "children": [
        1
      ],
      "matrix": [
        1.0,
        0.0,
        0.0,
        0.0,
        0.0,
        2.220446049250313e-16,
        -1.0,
        0.0,
        0.0,
        1.0,
        2.220446049250313e-16,
        0.0,
        0.0,
        0.0,
        0.0,
        1.0
      ],
      "name": "Sketchfab_model"
    },
    {
      "children": [
        2
      ],
      "matrix": [
        0.009999999776482582,
        0.0,
        0.0,
        0.0,
        0.0,
        0.0,
        0.009999999776482582,
        0.0,
        0.0,
        -0.009999999776482582,
        0.0,
        0.0,
        0.0,
        0.0,
        0.0,
        1.0
      ],
      "name": "12a84da02cfc45238db70fe39c3cb76c.fbx"
    },
    {
      "children": [
        3,
        6,
        8
      ],
      "name": "RootNode"
    },
    {
      "children": [
        4
      ],
      "matrix": [
        -29.08647719990347,
        -5.518906457566863,
        -95.51711910171437,
        0.0,
        56.63930913109449,
        79.46723428563203,
        -21.83912397841966,
        0.0,
        77.11008775993375,
        -60.45246356562044,
        -19.98834696773717,
        0.0,
        407.6245422363281,
        590.38623046875,
        -100.54539489746094,
        1.0
      ],
      "name": "Light"
    },
    {
      "children": [
        5
      ],
      "matrix": [
        1.0,
        0.0,
        0.0,
        0.0,
        0.0,
        2.220446049250313e-16,
        1.0,
        0.0,
        0.0,
        -1.0,
        2.220446049250313e-16,
        0.0,
        0.0,
        0.0,
        0.0,
        1.0
      ],
      "name": "Object_4"
    },
    {
      "name": "Object_5"
    },
    {
      "children": [
        7
      ],
      "matrix": [
        -65.15581009765468,
        -44.527143038140764,
        -61.41704928909654,
        0.0,
        -32.40135466989878,
        89.5395708958271,
        -30.542085476036902,
        0.0,
        68.59207001076176,
        1.2755314797120858e-05,
        -72.76761921184276,
        0.0,
        735.88916015625,
        495.8309326171875,
        692.5791015625,
        1.0
      ],
      "name": "Camera"
    },
    {
      "name": "Object_7"
    },
    {
      "children": [
        9
      ],
      "matrix": [
        9.090590476989746,
        0.0,
        0.0,
        0.0,
        0.0,
        -9.090591430663961,
        1.3726411173450702e-06,
        0.0,
        0.0,
        -1.3726411173450702e-06,
        -9.090591430663961,
        0.0,
        0.0,
        0.0,
        0.0,
        1.0
      ],
      "name": "Sketchfab_model"
    },
    {
      "children": [
        10
      ],
      "matrix": [
        1.0000001192092896,
        0.0,
        0.0,
        0.0,
        0.0,
        1.0,
        1.4210854688732224e-14,
        0.0,
        0.0,
        -1.4210854688732224e-14,
        1.0,
        0.0,
        0.0,
        0.0,
        0.0,
        1.0
      ],
      "name": "root"
    },
    {
      "children": [
        11
      ],
      "matrix": [
        1.0000001192092896,
        0.0,
        0.0,
        0.0,
        0.0,
        -1.6292067939183141e-07,
        0.9999999999999868,
        0.0,
        0.0,
        -0.9999999999999868,
        -1.6292067939183141e-07,
        0.0,
        0.0,
        0.0,
        0.0,
        1.0
      ],
      "name": "GLTF_SceneRootNode"
    },
    {
      "children": [
        12,
        15,
        18,
        21,
        24,
        27,
        30,
        33,
        36,
        39,
        42,
        45,
        48,
        51,
        54,
        57
      ],
      "matrix": [
        1.0,
        0.0,
        0.0,
        0.0,
        0.0,
        1.0,
        -1.6543612251060557e-24,
        0.0,
        0.0,
        1.6543612251060557e-24,
        1.0,
        0.0,
        0.0,
        0.0,
        0.0,
        1.0
      ],
      "name": "node_0_75"
    },
    {
      "children": [
        13
      ],
      "matrix": [
        1.0,
        0.0,
        0.0,
        0.0,
        0.0,
        1.0,
        -3.3087224502121114e-24,
        0.0,
        0.0,
        3.3087224502121114e-24,
        1.0,
        0.0,
        0.0,
        0.0,
        0.0,
        1.0
      ],
      "name": "node_10_33"
    },
    {
      "children": [
        14
      ],
      "matrix": [
        1.0,
        0.0,
        0.0,
        0.0,
        0.0,
        1.0,
        -3.3087224502121114e-24,
        0.0,
        0.0,
        3.3087224502121114e-24,
        1.0,
        0.0,
        0.0,
        0.0,
        0.0,
        1.0
      ],
      "name": "Object_5"
    },
    {
      "mesh": 0,
      "name": "Object_5_material00_0"
    },
    {
      "children": [
        16
      ],
      "matrix": [
        1.0,
        0.0,
        0.0,
        0.0,
        0.0,
        1.0,
        -3.3087224502121114e-24,
        0.0,
        0.0,
        3.3087224502121114e-24,
        1.0,
        0.0,
        0.0,
        0.0,
        0.0,
        1.0
      ],
      "name": "node_11_41"
    },
    {
      "children": [
        17
      ],
      "matrix": [
        1.0,
        0.0,
        0.0,
        0.0,
        0.0,
        1.0,
        -3.3087224502121114e-24,
        0.0,
        0.0,
        3.3087224502121114e-24,
        1.0,
        0.0,
        0.0,
        0.0,
        0.0,
        1.0
      ],
      "name": "Object_7"
    },
    {
      "mesh": 1,
      "name": "Object_7_material02_0"
    },
    {
      "children": [
        19
      ],
      "matrix": [
        1.0,
        0.0,
        0.0,
        0.0,
        0.0,
        1.0,
        -3.3087224502121114e-24,
        0.0,
        0.0,
        3.3087224502121114e-24,
        1.0,
        0.0,
        0.0,
        0.0,
        0.0,
        1.0
      ],
      "name": "node_22_42"
    },
    {
      "children": [
        20
      ],
      "matrix": [
        1.0,
        0.0,
        0.0,
        0.0,
        0.0,
        1.0,
        -3.3087224502121114e-24,
        0.0,
        0.0,
        3.3087224502121114e-24,
        1.0,
        0.0,
        0.0,
        0.0,
        0.0,
        1.0
      ],
      "name": "Object_9"
    },
    {
      "mesh": 2,
      "name": "Object_9_material01_0"
    },
    {
      "children": [
        22
      ],
      "matrix": [
        1.0,
        0.0,
        0.0,
        0.0,
        0.0,
        1.0,
        -3.3087224502121114e-24,
        0.0,
        0.0,
        3.3087224502121114e-24,
        1.0,
        0.0,
        0.0,
        0.0,
        0.0,
        1.0
      ],
      "name": "node_23_43"
    },
    {
      "children": [
        23
      ],
      "matrix": [
        1.0,
        0.0,
        0.0,
        0.0,
        0.0,
        1.0,
        -3.3087224502121114e-24,
        0.0,
        0.0,
        3.3087224502121114e-24,
        1.0,
        0.0,
        0.0,
        0.0,
        0.0,
        1.0
      ],
      "name": "Object_11"
    },
    {
      "mesh": 3,
      "name": "Object_11_material03_0"
    },
    {
      "children": [
        25
      ],
      "matrix": [
        1.0,
        0.0,
        0.0,
        0.0,
        0.0,
        1.0,
        -3.3087224502121114e-24,
        0.0,
        0.0,
        3.3087224502121114e-24,
        1.0,
        0.0,
        0.0,
        0.0,
        0.0,
        1.0
      ],
      "name": "prop0_blurred_VC_63"
    },
    {
      "children": [
        26
      ],
      "matrix": [
        1.0,
        0.0,
        0.0,
        0.0,
        0.0,
        1.0,
        -3.3087224502121114e-24,
        0.0,
        0.0,
        3.3087224502121114e-24,
        1.0,
        0.0,
        0.0,
        0.0,
        0.0,
        1.0
      ],
      "name": "Object_13"
    },
    {
      "mesh": 4,
      "name": "Object_13_material01_0"
    },
    {
      "children": [
        28
      ],
      "matrix": [
        1.0,
        0.0,
        0.0,
        0.0,
        0.0,
        1.0,
        -3.3087224502121114e-24,
        0.0,
        0.0,
        3.3087224502121114e-24,
        1.0,
        0.0,
        0.0,
        0.0,
        0.0,
        1.0
      ],
      "name": "prop0_slow_VC_64"
    },
    {
      "children": [
        29
      ],
      "matrix": [
        1.0,
        0.0,
        0.0,
        0.0,
        0.0,
        1.0,
        -3.3087224502121114e-24,
        0.0,
        0.0,
        3.3087224502121114e-24,
        1.0,
        0.0,
        0.0,
        0.0,
        0.0,
        1.0
      ],
      "name": "Object_15"
    },
    {
      "mesh": 5,
      "name": "Object_15_material01_0"
    },
    {
      "children": [
        31
      ],
      "matrix": [
        1.0,
        0.0,
        0.0,
        0.0,
        0.0,
        1.0,
        -3.3087224502121114e-24,
        0.0,
        0.0,
        3.3087224502121114e-24,
        1.0,
        0.0,
        0.0,
        0.0,
        0.0,
        1.0
      ],
      "name": "prop0_still_VC_65"
    },
    {
      "children": [
        32
      ],
      "matrix": [
        1.0,
        0.0,
        0.0,
        0.0,
        0.0,
        1.0,
        -3.3087224502121114e-24,
        0.0,
        0.0,
        3.3087224502121114e-24,
        1.0,
        0.0,
        0.0,
        0.0,
        0.0,
        1.0
      ],
      "name": "Object_17"
    },
    {
      "mesh": 6,
      "name": "Object_17_material01_0"
    },
    {
      "children": [
        34
      ],
      "matrix": [
        1.0,
        0.0,
        0.0,
        0.0,
        0.0,
        1.0,
        -3.3087224502121114e-24,
        0.0,
        0.0,
        3.3087224502121114e-24,
        1.0,
        0.0,
        0.0,
        0.0,
        0.0,
        1.0
      ],
      "name": "prop1_blurred_VC_66"
    },
    {
      "children": [
        35
      ],
      "matrix": [
        1.0,
        0.0,
        0.0,
        0.0,
        0.0,
        1.0,
        -3.3087224502121114e-24,
        0.0,
        0.0,
        3.3087224502121114e-24,
        1.0,
        0.0,
        0.0,
        0.0,
        0.0,
        1.0
      ],
      "name": "Object_19"
    },
    {
      "mesh": 7,
      "name": "Object_19_material01_0"
    },
    {
      "children": [
        37
      ],
      "matrix": [
        1.0,
        0.0,
        0.0,
        0.0,
        0.0,
        1.0,
        -3.3087224502121114e-24,
        0.0,
        0.0,
        3.3087224502121114e-24,
        1.0,
        0.0,
        0.0,
        0.0,
        0.0,
        1.0
      ],
      "name": "prop1_slow_VC_67"
    },
    {
      "children": [
        38
      ],
      "matrix": [
        1.0,
        0.0,
        0.0,
        0.0,
        0.0,
        1.0,
        -3.3087224502121114e-24,
        0.0,
        0.0,
        3.3087224502121114e-24,
        1.0,
        0.0,
        0.0,
        0.0,
        0.0,
        1.0
      ],
      "name": "Object_21"
    },
    {
      "mesh": 8,
      "name": "Object_21_material01_0"
    },
    {
      "children": [
        40
      ],
      "matrix": [
        1.0,
        0.0,
        0.0,
        0.0,
        0.0,
        1.0,
        -3.3087224502121114e-24,
        0.0,
        0.0,
        3.3087224502121114e-24,
        1.0,
        0.0,
        0.0,
        0.0,
        0.0,
        1.0
      ],
      "name": "prop1_still_VC_68"
    },
    {
      "children": [
        41
      ],
      "matrix": [
        1.0,
        0.0,
        0.0,
        0.0,
        0.0,
        1.0,
        -3.3087224502121114e-24,
        0.0,
        0.0,
        3.3087224502121114e-24,
        1.0,
        0.0,
        0.0,
        0.0,
        0.0,
        1.0
      ],
      "name": "Object_23"
    },
    {
      "mesh": 9,
      "name": "Object_23_material01_0"
    },
    {
      "children": [
        43
      ],
      "matrix": [
        1.0,
        0.0,
        0.0,
        0.0,
        0.0,
        1.0,
        -3.3087224502121114e-24,
        0.0,
        0.0,
        3.3087224502121114e-24,
        1.0,
        0.0,
        0.0,
        0.0,
        0.0,
        1.0
      ],
      "name": "prop2_blurred_VC_69"
    },
    {
      "children": [
        44
      ],
      "matrix": [
        1.0,
        0.0,
        0.0,
        0.0,
        0.0,
        1.0,
        -3.3087224502121114e-24,
        0.0,
        0.0,
        3.3087224502121114e-24,
        1.0,
        0.0,
        0.0,
        0.0,
        0.0,
        1.0
      ],
      "name": "Object_25"
    },
    {
      "mesh": 10,
      "name": "Object_25_material01_0"
    },
    {
      "children": [
        46
      ],
      "matrix": [
        1.0,
        0.0,
        0.0,
        0.0,
        0.0,
        1.0,
        -3.3087224502121114e-24,
        0.0,
        0.0,
        3.3087224502121114e-24,
        1.0,
        0.0,
        0.0,
        0.0,
        0.0,
        1.0
      ],
      "name": "prop2_slow_VC_70"
    },
    {
      "children": [
        47
      ],
      "matrix": [
        1.0,
        0.0,
        0.0,
        0.0,
        0.0,
        1.0,
        -3.3087224502121114e-24,
        0.0,
        0.0,
        3.3087224502121114e-24,
        1.0,
        0.0,
        0.0,
        0.0,
        0.0,
        1.0
      ],
      "name": "Object_27"
    },
    {
      "mesh": 11,
      "name": "Object_27_material01_0"
    },
    {
      "children": [
        49
      ],
      "matrix": [
        1.0,
        0.0,
        0.0,
        0.0,
        0.0,
        1.0,
        -3.3087224502121114e-24,
        0.0,
        0.0,
        3.3087224502121114e-24,
        1.0,
        0.0,
        0.0,
        0.0,
        0.0,
        1.0
      ],
      "name": "prop2_still_VC_71"
    },
    {
      "children": [
        50
      ],
      "matrix": [
        1.0,
        0.0,
        0.0,
        0.0,
        0.0,
        1.0,
        -3.3087224502121114e-24,
        0.0,
        0.0,
        3.3087224502121114e-24,
        1.0,
        0.0,
        0.0,
        0.0,
        0.0,
        1.0
      ],
      "name": "Object_29"
    },
    {
      "mesh": 12,
      "name": "Object_29_material01_0"
    },
    {
      "children": [
        52
      ],
      "matrix": [
        1.0,
        0.0,
        0.0,
        0.0,
        0.0,
        1.0,
        -3.3087224502121114e-24,
        0.0,
        0.0,
        3.3087224502121114e-24,
        1.0,
        0.0,
        0.0,
        0.0,
        0.0,
        1.0
      ],
      "name": "prop3_blurred_VC_72"
    },
    {
      "children": [
        53
      ],
      "matrix": [
        1.0,
        0.0,
        0.0,
        0.0,
        0.0,
        1.0,
        -3.3087224502121114e-24,
        0.0,
        0.0,
        3.3087224502121114e-24,
        1.0,
        0.0,
        0.0,
        0.0,
        0.0,
        1.0
      ],
      "name": "Object_31"
    },
    {
      "mesh": 13,
      "name": "Object_31_material01_0"
    },
    {
      "children": [
        55
      ],
      "matrix": [
        1.0,
        0.0,
        0.0,
        0.0,
        0.0,
        1.0,
        -3.3087224502121114e-24,
        0.0,
        0.0,
        3.3087224502121114e-24,
        1.0,
        0.0,
        0.0,
        0.0,
        0.0,
        1.0
      ],
      "name": "prop3_slow_VC_73"
    },
    {
      "children": [
        56
      ],
      "matrix": [
        1.0,
        0.0,
        0.0,
        0.0,
        0.0,
        1.0,
        -3.3087224502121114e-24,
        0.0,
        0.0,
        3.3087224502121114e-24,
        1.0,
        0.0,
        0.0,
        0.0,
        0.0,
        1.0
      ],
      "name": "Object_33"
    },
    {
      "mesh": 14,
      "name": "Object_33_material01_0"
    },
    {
      "children": [
        58
      ],
      "matrix": [
        1.0,
        0.0,
        0.0,
        0.0,
        0.0,
        1.0,
        -3.3087224502121114e-24,
        0.0,
        0.0,
        3.3087224502121114e-24,
        1.0,
        0.0,
        0.0,
        0.0,
        0.0,
        1.0
      ],
      "name": "prop3_still_VC_74"
    },
    {
      "children": [
        59
      ],
      "matrix": [
        1.0,
        0.0,
        0.0,
        0.0,
        0.0,
        1.0,
        -3.3087224502121114e-24,
        0.0,
        0.0,
        3.3087224502121114e-24,
        1.0,
        0.0,
        0.0,
        0.0,
        0.0,
        1.0
      ],
      "name": "Object_35"
    },
    {
      "mesh": 15,
      "name": "Object_35_material01_0"
    }
  ],
  "samplers": [
    {
      "magFilter": 9729,
      "minFilter": 9987,
      "wrapS": 10497,
      "wrapT": 10497
    }
  ],
  "scene": 0,
  "scenes": [
    {
      "name": "Sketchfab_Scene",
      "nodes": [
        0
      ]
    }
  ],
  "textures": [
    {
      "sampler": 0,
      "source": 0
    },
    {
      "sampler": 0,
      "source": 1
    },
    {
      "sampler": 0,
      "source": 2
    },
    {
      "sampler": 0,
      "source": 3
    }
  ]
}
